<svg width="188" height="114" viewBox="0 0 188 114" fill="none" xmlns="http://www.w3.org/2000/svg">
<g filter="url(#filter0_d_1_3)">
<path d="M5.71023 95L21.1648 1.90909H57.892C64.9223 1.90909 70.7102 3.15151 75.2557 5.63636C79.8314 8.12121 83.0436 11.6515 84.892 16.2273C86.7708 20.7727 87.2102 26.1364 86.2102 32.3182C85.1799 38.5 82.9527 43.803 79.5284 48.2273C76.1345 52.6515 71.7102 56.0606 66.2557 58.4545C60.8314 60.8182 54.5436 62 47.392 62H22.8011L25.5284 46.1818H46.892C50.6496 46.1818 53.8617 45.6667 56.5284 44.6364C59.1951 43.6061 61.3011 42.0606 62.8466 40C64.4223 37.9394 65.4527 35.3788 65.9375 32.3182C66.4527 29.197 66.2708 26.5909 65.392 24.5C64.5133 22.3788 62.9223 20.7727 60.6193 19.6818C58.3163 18.5606 55.286 18 51.5284 18H38.2557L25.392 95H5.71023ZM62.983 52.6364L79.1193 95H57.392L41.7557 52.6364H62.983ZM162.642 32C162.4 29.7879 161.884 27.8333 161.097 26.1364C160.339 24.4091 159.294 22.9545 157.96 21.7727C156.627 20.5606 155.006 19.6364 153.097 19C151.188 18.3636 148.975 18.0455 146.46 18.0455C141.703 18.0455 137.248 19.2273 133.097 21.5909C128.975 23.9545 125.46 27.3939 122.551 31.9091C119.642 36.3939 117.657 41.8788 116.597 48.3636C115.506 54.8485 115.506 60.3636 116.597 64.9091C117.718 69.4545 119.824 72.9242 122.915 75.3182C126.036 77.6818 130.051 78.8636 134.96 78.8636C139.415 78.8636 143.415 78.0758 146.96 76.5C150.506 74.8939 153.4 72.6364 155.642 69.7273C157.915 66.8182 159.369 63.3788 160.006 59.4091L163.915 60H139.96L142.415 45.1818H181.369L179.369 56.9091C178.066 65.0909 175.203 72.1212 170.778 78C166.354 83.8788 160.839 88.3939 154.233 91.5455C147.657 94.697 140.445 96.2727 132.597 96.2727C123.869 96.2727 116.521 94.3485 110.551 90.5C104.612 86.6212 100.384 81.1212 97.8693 74C95.3845 66.8485 94.9451 58.3636 96.5511 48.5455C97.7936 41 100.006 34.2727 103.188 28.3636C106.4 22.4242 110.324 17.3939 114.96 13.2727C119.597 9.15151 124.733 6.01515 130.369 3.86363C136.036 1.71212 141.93 0.63636 148.051 0.63636C153.324 0.63636 158.097 1.40909 162.369 2.95454C166.672 4.4697 170.354 6.62121 173.415 9.40909C176.506 12.197 178.839 15.5151 180.415 19.3636C182.021 23.1818 182.763 27.3939 182.642 32H162.642Z" fill="#FE00D5"/>
</g>
<defs>
<filter id="filter0_d_1_3" x="0.710227" y="0.636353" width="187.114" height="112.636" filterUnits="userSpaceOnUse" color-interpolation-filters="sRGB">
<feFlood flood-opacity="0" result="BackgroundImageFix"/>
<feColorMatrix in="SourceAlpha" type="matrix" values="0 0 0 0 0 0 0 0 0 0 0 0 0 0 0 0 0 0 127 0" result="hardAlpha"/>
<feOffset dy="12"/>
<feGaussianBlur stdDeviation="2.5"/>
<feComposite in2="hardAlpha" operator="out"/>
<feColorMatrix type="matrix" values="0 0 0 0 0.0700382 0 0 0 0 0.0519097 0 0 0 0 0.958333 0 0 0 1 0"/>
<feBlend mode="normal" in2="BackgroundImageFix" result="effect1_dropShadow_1_3"/>
<feBlend mode="normal" in="SourceGraphic" in2="effect1_dropShadow_1_3" result="shape"/>
</filter>
</defs>
</svg>
